<svg xmlns="http://www.w3.org/2000/svg" viewBox="0 0 500 500">
  <circle cx="250" cy="250" r="250" fill="#FFFFFF"/>
  <circle cx="250" cy="250" r="230" fill="#FFFFFF" stroke="#8B0000" stroke-width="10"/>
  
  <!-- Cat Face -->
  <path d="M250 150 Q320 180 350 300 Q330 380 250 400 Q170 380 150 300 Q180 180 250 150" fill="#FF8C00" stroke="#8B0000" stroke-width="2"/>
  
  <!-- Cat Ears -->
  <path d="M180 200 Q150 100 220 150" fill="#FF8C00" stroke="#8B0000" stroke-width="2"/>
  <path d="M320 200 Q350 100 280 150" fill="#FF8C00" stroke="#8B0000" stroke-width="2"/>
  
  <!-- Cat Face Details -->
  <path d="M200 250 Q230 270 250 270 Q270 270 300 250" fill="none" stroke="#8B0000" stroke-width="2"/>
  <ellipse cx="210" cy="220" rx="15" ry="20" fill="#FFFFFF" stroke="#000000" stroke-width="2"/>
  <ellipse cx="290" cy="220" rx="15" ry="20" fill="#FFFFFF" stroke="#000000" stroke-width="2"/>
  <ellipse cx="210" cy="220" rx="5" ry="10" fill="#000000"/>
  <ellipse cx="290" cy="220" rx="5" ry="10" fill="#000000"/>
  
  <!-- Cat Nose -->
  <path d="M250 280 L240 290 L260 290 Z" fill="#FF0000"/>
  
  <!-- Cat Whiskers -->
  <line x1="180" y1="290" x2="230" y2="285" stroke="#FFFFFF" stroke-width="2"/>
  <line x1="180" y1="300" x2="230" y2="295" stroke="#FFFFFF" stroke-width="2"/>
  <line x1="180" y1="310" x2="230" y2="305" stroke="#FFFFFF" stroke-width="2"/>
  <line x1="320" y1="290" x2="270" y2="285" stroke="#FFFFFF" stroke-width="2"/>
  <line x1="320" y1="300" x2="270" y2="295" stroke="#FFFFFF" stroke-width="2"/>
  <line x1="320" y1="310" x2="270" y2="305" stroke="#FFFFFF" stroke-width="2"/>
  
  <!-- Headphones -->
  <path d="M150 250 Q130 220 150 190 Q170 180 180 200" fill="#4B0082" stroke="#000000" stroke-width="2"/>
  <path d="M350 250 Q370 220 350 190 Q330 180 320 200" fill="#4B0082" stroke="#000000" stroke-width="2"/>
  <path d="M150 190 Q200 150 250 140 Q300 150 350 190" fill="none" stroke="#4B0082" stroke-width="10"/>
  
  <!-- Music Notes -->
  <path d="M380 290 L390 270 L400 280 L390 300 L380 290" fill="#8B008B"/>
  <line x1="400" y1="280" x2="400" y2="250" stroke="#8B008B" stroke-width="2"/>
  
  <path d="M410 310 L420 290 L430 300 L420 320 L410 310" fill="#8B008B"/>
  <line x1="430" y1="300" x2="430" y2="270" stroke="#8B008B" stroke-width="2"/>
  
  <!-- Hearts -->
  <path d="M380 340 Q390 320 400 340 Q410 320 420 340 Q410 360 400 350 Q390 360 380 340" fill="#FF0000"/>
  <path d="M430 320 Q440 300 450 320 Q460 300 470 320 Q460 340 450 330 Q440 340 430 320" fill="#FF0000"/>
</svg>